<?xml version="1.0" encoding="UTF-8" standalone="no"?>
<!-- Created with Inkscape (http://www.inkscape.org/) -->

<svg
   xmlns:dc="http://purl.org/dc/elements/1.1/"
   xmlns:cc="http://creativecommons.org/ns#"
   xmlns:rdf="http://www.w3.org/1999/02/22-rdf-syntax-ns#"
   xmlns:svg="http://www.w3.org/2000/svg"
   xmlns="http://www.w3.org/2000/svg"
   xmlns:sodipodi="http://sodipodi.sourceforge.net/DTD/sodipodi-0.dtd"
   xmlns:inkscape="http://www.inkscape.org/namespaces/inkscape"
   width="64"
   height="64"
   viewBox="0 0 16.933333 16.933334"
   version="1.1"
   id="svg8"
   inkscape:export-filename="D:\Users\elija\Documents\GitHub\Cresspresso\Deliberator\Assets\Textures\UI_Textures\UI_Hand.png"
   inkscape:export-xdpi="96"
   inkscape:export-ydpi="96"
   inkscape:version="0.92.5 (2060ec1f9f, 2020-04-08)"
   sodipodi:docname="UI_Hand.svg">
  <defs
     id="defs2" />
  <sodipodi:namedview
     id="base"
     pagecolor="#ffffff"
     bordercolor="#666666"
     borderopacity="1.0"
     inkscape:pageopacity="0"
     inkscape:pageshadow="2"
     inkscape:zoom="5.6"
     inkscape:cx="37.42086"
     inkscape:cy="8.2154705"
     inkscape:document-units="mm"
     inkscape:current-layer="layer1"
     showgrid="false"
     units="px"
     inkscape:pagecheckerboard="true"
     inkscape:snap-global="false"
     inkscape:window-width="1920"
     inkscape:window-height="1017"
     inkscape:window-x="-8"
     inkscape:window-y="-8"
     inkscape:window-maximized="1" />
  <metadata
     id="metadata5">
    <rdf:RDF>
      <cc:Work
         rdf:about="">
        <dc:format>image/svg+xml</dc:format>
        <dc:type
           rdf:resource="http://purl.org/dc/dcmitype/StillImage" />
        <dc:title />
      </cc:Work>
    </rdf:RDF>
  </metadata>
  <g
     inkscape:label="Layer 1"
     inkscape:groupmode="layer"
     id="layer1"
     transform="translate(0,-280.06665)">
    <path
       style="fill:#dcdcdc;fill-opacity:1;stroke:#1e1e1e;stroke-width:0.7295354;stroke-linecap:butt;stroke-linejoin:miter;stroke-miterlimit:4;stroke-dasharray:none;stroke-opacity:1"
       d="m 5.9323607,296.42733 h 6.6439823 c 0,0 1.433016,-3.58254 1.302741,-6.25317 -0.130254,-2.6706 -0.261604,-4.04215 -1.107331,-4.5596 -1.024525,-0.62682 -0.716503,3.90823 -0.716503,3.90823 0,0 -0.204484,-2.69294 -0.716508,-4.16876 -0.127304,-0.36695 -0.811014,-0.833 -1.042193,-0.5211 -0.7733444,1.04408 -0.390817,4.49445 -0.390817,4.49445 0,0 -0.093766,-3.10622 -0.6513707,-4.755 -0.1720807,-0.50882 -1.2919657,-0.35129 -1.3678793,0 -0.3663085,1.69512 -0.4559594,4.49447 -0.4559594,4.49447 0,0 -0.1954112,-5.53666 -0.3908224,-6.8394 -0.1954111,-1.30274 -0.07169,-1.6787 -0.8467817,-1.56329 -0.7814344,0.11636 -0.7816446,1.04219 -0.7816446,2.08438 v 8.14214 c 0,0 -0.6240172,-3.98936 -3.1265814,-3.71282 -1.30554369,0.14426 1.0333729,2.4617 2.0843872,5.0807 0.7858095,1.95814 1.1535818,2.95586 1.563281,4.16877 z"
       id="path861"
       inkscape:connector-curvature="0"
       sodipodi:nodetypes="cccscsscsscssscssc" />
  </g>
</svg>
